<svg xmlns="http://www.w3.org/2000/svg" width="33.54" height="33.43" viewBox="0 0 33.54 33.43"><defs><style>.a{fill:#fff;}</style></defs><title>icon-white</title><path class="a" d="M16.77,13.66a3.06,3.06,0,1,1-2.16.89,3.06,3.06,0,0,1,2.16-.89m0-1a4.06,4.06,0,1,0,4.06,4.05,4.05,4.05,0,0,0-4.06-4.05Z"/><path class="a" d="M1,13.06a10.25,10.25,0,0,1,9.23,10.18v9.14A10.25,10.25,0,0,1,1,22.2V13.06M0,12V22.2A11.23,11.23,0,0,0,11.23,33.43V23.24A11.23,11.23,0,0,0,0,12Z"/><path class="a" d="M20.37,1a10.25,10.25,0,0,1-10.18,9.23H1.05A10.25,10.25,0,0,1,11.23,1h9.14m1.05-1H11.23A11.23,11.23,0,0,0,0,11.23H10.19A11.23,11.23,0,0,0,21.42,0Z"/><path class="a" d="M32.49,23.2a10.25,10.25,0,0,1-10.18,9.23H13.17A10.25,10.25,0,0,1,23.36,23.2h9.13m1-1H23.36A11.23,11.23,0,0,0,12.12,33.43H22.31A11.23,11.23,0,0,0,33.54,22.2Z"/><path class="a" d="M23.31,1.05a10.25,10.25,0,0,1,9.23,10.18v9.14a10.25,10.25,0,0,1-9.23-10.18V1.05m-1-1V10.19A11.23,11.23,0,0,0,33.54,21.42V11.23A11.23,11.23,0,0,0,22.31,0Z"/></svg>